<svg width="82" height="82" viewBox="0 0 82 82" fill="none" xmlns="http://www.w3.org/2000/svg">
<g clip-path="url(#clip0_4531_1031)">
<rect width="82" height="82" rx="41" fill="white"/>
<path d="M83 41.2552C83 17.9165 64.1949 -1.00317 40.9976 -1.00317C17.8002 -1.00317 -1.00488 17.9165 -1.00488 41.2552C-1.00488 62.3475 14.3548 79.8299 34.4347 83.0001V53.4705H23.77V41.2552H34.4347V31.9451C34.4347 21.3541 40.7054 15.504 50.2997 15.504C54.8951 15.504 59.7018 16.3293 59.7018 16.3293V26.7289H54.4054C49.1876 26.7289 47.5605 29.9863 47.5605 33.3282V41.2552H59.2096L57.3474 53.4705H47.5605V83.0001C67.6404 79.8299 83 62.3475 83 41.2552Z" fill="#0064E0"/>
</g>
<defs>
<clipPath id="clip0_4531_1031">
<rect width="82" height="82" rx="41" fill="white"/>
</clipPath>
</defs>
</svg>
