<svg width="49" height="49" viewBox="0 0 49 49" fill="none" xmlns="http://www.w3.org/2000/svg">
<rect x="11" y="13" width="26" height="23" fill="white"/>
<path fill-rule="evenodd" clipRule="evenodd" d="M18.2432 3.21986C21.3096 -1.07329 27.6902 -1.07329 30.7569 3.21986L31.2451 3.90334C31.7846 4.65892 32.6909 5.06349 33.6136 4.96097L35.7896 4.71917C40.687 4.17504 44.825 8.31305 44.2809 13.2103L44.0392 15.3864C43.9366 16.3092 44.3411 17.2153 45.0967 17.755L45.7802 18.2432C50.0733 21.3096 50.0733 27.6902 45.7802 30.7569L45.0967 31.2451C44.3411 31.7846 43.9366 32.6909 44.0392 33.6136L44.2809 35.7896C44.825 40.687 40.687 44.825 35.7896 44.2809L33.6136 44.0392C32.6909 43.9366 31.7846 44.3411 31.2451 45.0967L30.7569 45.7802C27.6902 50.0733 21.3099 50.0733 18.2432 45.7802L17.755 45.0967C17.2153 44.3411 16.3092 43.9366 15.3863 44.0392L13.2103 44.2809C8.31305 44.825 4.17504 40.687 4.71917 35.7896L4.96097 33.6136C5.06349 32.6909 4.65892 31.7846 3.90334 31.2451L3.21986 30.7569C-1.07329 27.6902 -1.07329 21.3099 3.21986 18.2432L3.90334 17.755C4.65892 17.2153 5.06349 16.3092 4.96097 15.3863L4.71917 13.2103C4.17504 8.31305 8.31305 4.17504 13.2103 4.71917L15.3864 4.96097C16.3092 5.06349 17.2153 4.65892 17.755 3.90334L18.2432 3.21986ZM34.0014 17.5617C35.0022 18.5626 35.0022 20.1855 34.0014 21.1863L24.2135 30.9742C22.9563 32.2316 20.9177 32.2316 19.6606 30.9742L14.9987 26.3123C13.9978 25.3115 13.9978 23.6886 14.9987 22.6877C15.9996 21.6869 17.6224 21.6869 18.6233 22.6877L21.937 26.0015L30.3768 17.5617C31.3776 16.5608 33.0005 16.5608 34.0014 17.5617Z" fill="#0081FB"/>
</svg>
