<svg width="16" height="16" viewBox="0 0 16 16" fill="none" xmlns="http://www.w3.org/2000/svg">
<path d="M8 3C5.23858 3 3 5.23858 3 8C3 10.7614 5.23858 13 8 13C10.7614 13 13 10.7614 13 8C13 7.25457 12.8372 6.54853 12.5457 5.91434C12.4304 5.66343 12.5403 5.36654 12.7912 5.25121C13.0421 5.13588 13.339 5.24579 13.4543 5.49669C13.8048 6.25923 14 7.1075 14 8C14 11.3137 11.3137 14 8 14C4.68629 14 2 11.3137 2 8C2 4.68629 4.68629 2 8 2V3Z" fill="white"/>
<path d="M12.8296 6.70591C13.5443 9.37324 11.9614 12.1149 9.29409 12.8296C6.62676 13.5443 3.88508 11.9614 3.17037 9.2941C2.45566 6.62677 4.03857 3.88508 6.7059 3.17037C7.42593 2.97744 8.15005 2.95196 8.83808 3.06939C9.11029 3.11585 9.36862 2.93285 9.41508 2.66064C9.46154 2.38844 9.27853 2.13011 9.00633 2.08365C8.17906 1.94245 7.30917 1.97345 6.44708 2.20445C3.24629 3.0621 1.34679 6.35212 2.20444 9.55292C3.06209 12.7537 6.35211 14.6532 9.55291 13.7956C12.7537 12.9379 14.6532 9.64789 13.7956 6.44709L12.8296 6.70591Z" fill="white"/>
</svg>
