<svg width="12" height="12" viewBox="0 0 12 12" fill="none" xmlns="http://www.w3.org/2000/svg">
<path d="M3 9.5H9C9.13261 9.5 9.25979 9.44732 9.35355 9.35355C9.44732 9.25979 9.5 9.13261 9.5 9V6.5H10.5V9C10.5 9.39782 10.342 9.77936 10.0607 10.0607C9.77936 10.342 9.39782 10.5 9 10.5H3C2.60218 10.5 2.22064 10.342 1.93934 10.0607C1.65804 9.77936 1.5 9.39782 1.5 9V3C1.5 2.60218 1.65804 2.22064 1.93934 1.93934C2.22064 1.65804 2.60218 1.5 3 1.5H5.5V2.5H3C2.86739 2.5 2.74021 2.55268 2.64645 2.64645C2.55268 2.74021 2.5 2.86739 2.5 3V9C2.5 9.13261 2.55268 9.25979 2.64645 9.35355C2.74021 9.44732 2.86739 9.5 3 9.5Z" fill="#0D6EFD"/>
<path d="M5.64622 5.6465L8.79221 2.5H6.99972C6.86711 2.5 6.73993 2.44732 6.64616 2.35355C6.55239 2.25979 6.49972 2.13261 6.49972 2C6.49972 1.86739 6.55239 1.74021 6.64616 1.64645C6.73993 1.55268 6.86711 1.5 6.99972 1.5H9.99972C10.1323 1.5 10.2595 1.55268 10.3533 1.64645C10.447 1.74021 10.4997 1.86739 10.4997 2V5C10.4997 5.13261 10.447 5.25979 10.3533 5.35355C10.2595 5.44732 10.1323 5.5 9.99972 5.5C9.86711 5.5 9.73993 5.44732 9.64616 5.35355C9.55239 5.25979 9.49972 5.13261 9.49972 5V3.207L6.35322 6.3535C6.25891 6.44458 6.13261 6.49498 6.00151 6.49384C5.87042 6.4927 5.74501 6.44011 5.65231 6.34741C5.5596 6.25471 5.50702 6.1293 5.50588 5.9982C5.50474 5.8671 5.55514 5.7408 5.64622 5.6465Z" fill="#0D6EFD"/>
</svg>
